<?xml version="1.0" encoding="UTF-8" standalone="no"?>
<!-- Created with Inkscape (http://www.inkscape.org/) -->

<svg
   xmlns:dc="http://purl.org/dc/elements/1.1/"
   xmlns:cc="http://creativecommons.org/ns#"
   xmlns:rdf="http://www.w3.org/1999/02/22-rdf-syntax-ns#"
   xmlns:svg="http://www.w3.org/2000/svg"
   xmlns="http://www.w3.org/2000/svg"
   xmlns:sodipodi="http://sodipodi.sourceforge.net/DTD/sodipodi-0.dtd"
   xmlns:inkscape="http://www.inkscape.org/namespaces/inkscape"
   width="500"
   height="90"
   id="svg2"
   viewBox="0 0 500 90"
   preserveAspectRatio="none"
   version="1.1"
   inkscape:version="0.91 r13725"
   sodipodi:docname="empty.svg">
  <defs
     id="defs4">
    <linearGradient
       id="linearGradient3755">
      <stop
         style="stop-color:#d4e0ee;stop-opacity:1;"
         offset="0"
         id="stop3757" />
      <stop
         style="stop-color:#ffffff;stop-opacity:1;"
         offset="1"
         id="stop3759" />
    </linearGradient>
  </defs>
  <sodipodi:namedview
     id="base"
     pagecolor="#ffffff"
     bordercolor="#666666"
     borderopacity="1.0"
     inkscape:pageopacity="0.0"
     inkscape:pageshadow="2"
     inkscape:zoom="0.7"
     inkscape:cx="695.71497"
     inkscape:cy="58.645067"
     inkscape:document-units="px"
     inkscape:current-layer="layer1"
     showgrid="false"
     fit-margin-top="0"
     fit-margin-left="0"
     fit-margin-right="0"
     fit-margin-bottom="0"
     inkscape:window-width="1920"
     inkscape:window-height="1060"
     inkscape:window-x="1917"
     inkscape:window-y="-3"
     inkscape:window-maximized="1"
     inkscape:snap-global="false" />
  <metadata
     id="metadata7">
    <rdf:RDF>
      <cc:Work
         rdf:about="">
        <dc:format>image/svg+xml</dc:format>
        <dc:type
           rdf:resource="http://purl.org/dc/dcmitype/StillImage" />
        <dc:title></dc:title>
      </cc:Work>
    </rdf:RDF>
  </metadata>
  <g
     inkscape:label="Calque 1"
     inkscape:groupmode="layer"
     id="layer1"
     transform="translate(-17.623062,3.6797718)">
    <g
       transform="matrix(5.2642196,0,0,5.2642196,-4612.0332,-4688.8428)"
       id="g5768">
      <path
         style="fill:#8ba5ce"
         d="m 891.74107,905.29972 -8,0 0,-4 0,-4 2.10841,0 2.10841,0 -0.62746,2.5 -0.62746,2.5 5.0381,0 5.0381,0 -0.62746,-2.5 -0.62746,-2.5 2.10841,0 2.10841,0 0,4 0,4 -8,0 z m -0.059,-5 -2.05901,0 0.66825,-1.08126 0.66826,-1.08126 -2.85924,-3.16874 -2.85924,-3.16874 3.16874,2.85924 3.16874,2.85924 1.08126,-0.66826 1.08126,-0.66825 0,2.05901 0,2.05902 -2.05902,0 z"
         id="path5694"
         inkscape:connector-curvature="0" />
      <path
         style="fill:#6581ae"
         d="m 891.74107,905.29972 -8,0 0,-4 0,-4 2.10841,0 2.10841,0 -0.62746,2.5 -0.62746,2.5 5.0381,0 5.0381,0 -0.62746,-2.5 -0.62746,-2.5 2.10841,0 2.10841,0 0,4 0,4 -8,0 z m 0,-1 7,0 0,-3 0,-3 -0.86133,0 -0.86133,0 0.47791,2.5 0.4779,2.5 -6.23315,0 -6.23315,0 0.4779,-2.5 0.47791,-2.5 -0.86133,0 -0.86133,0 0,3 0,3 7,0 z m -0.059,-4 -2.05901,0 0.66825,-1.08126 0.66826,-1.08126 -2.85924,-3.16874 -2.85924,-3.16874 3.16874,2.85924 3.16874,2.85924 1.08126,-0.66826 1.08126,-0.66825 0,2.05901 0,2.05902 -2.05902,0 z"
         id="path5692"
         inkscape:connector-curvature="0" />
      <path
         style="fill:#5672a2"
         d="m 891.74107,905.29972 -8,0 0.116,-2.25 0.116,-2.25 0.45733,1.75 0.45732,1.75 6.85335,0 6.85335,0 0.45732,-1.75 0.45733,-1.75 0.116,2.25 0.116,2.25 -8,0 z m 0,-2 -6,0 0,-0.75 0,-0.75 6,0 6,0 0,0.75 0,0.75 -6,0 z m -0.059,-3 -2.05901,0 0.66825,-1.08126 0.66826,-1.08126 -2.85924,-3.16874 -2.85924,-3.16874 3.16874,2.85924 3.16874,2.85924 1.08126,-0.66826 1.08126,-0.66825 0,2.05901 0,2.05902 -2.05902,0 z"
         id="path5690"
         inkscape:connector-curvature="0" />
      <path
         style="fill:#29679f"
         d="m 892.0744,900.29972 -1.66666,0 0.68425,-0.68425 0.68425,-0.68425 -3.26759,-3.56575 -3.26758,-3.56575 3.56575,3.26758 3.56575,3.26759 0.68425,-0.68425 0.68425,-0.68425 0,1.66666 0,1.66667 -1.66667,0 z"
         id="path5688"
         inkscape:connector-curvature="0" />
    </g>
    <g
       style="font-style:normal;font-weight:normal;font-size:35.40497971px;line-height:125%;font-family:Sans;letter-spacing:0px;word-spacing:0px;fill:#5a5a5a;fill-opacity:1;stroke:none;stroke-width:1px;stroke-linecap:butt;stroke-linejoin:miter;stroke-opacity:1"
       id="text3950"
       transform="translate(22.550811,-9.4665194)">
      <path
         d="m 115.87593,41.120075 0,-21.005859 5.52246,0 q 5.39063,0 8.14453,2.592773 2.75391,2.578125 2.75391,7.631836 0,2.431641 -0.77637,4.423828 -0.76172,1.992188 -2.21191,3.413086 -1.4502,1.40625 -3.51563,2.182617 -2.06543,0.761719 -4.6582,0.761719 l -5.25879,0 z m 1.94824,-19.21875 0,17.446289 3.22266,0 q 2.16797,0 3.86719,-0.585937 1.71386,-0.585938 2.90039,-1.713867 1.18652,-1.142579 1.80176,-2.8125 0.62988,-1.669922 0.62988,-3.837891 0,-8.496094 -8.97949,-8.496094 l -3.44239,0 z"
         style="font-style:normal;font-variant:normal;font-weight:normal;font-stretch:normal;font-size:30px;font-family:'Segoe UI';-inkscape-font-specification:'Segoe UI';text-align:start;text-anchor:start;fill:#5a5a5a;fill-opacity:1"
         id="path3961"
         inkscape:connector-curvature="0" />
      <path
         d="m 142.33101,41.471638 q -1.66992,0 -3.00293,-0.556641 -1.31836,-0.556641 -2.25586,-1.567383 -0.9375,-1.02539 -1.43555,-2.446289 -0.49804,-1.420898 -0.49804,-3.149414 0,-1.875 0.52734,-3.354492 0.52734,-1.479492 1.49414,-2.504883 0.98145,-1.040039 2.3584,-1.582031 1.37695,-0.541992 3.07617,-0.541992 1.62598,0 2.92969,0.541992 1.30371,0.527344 2.21191,1.538086 0.90821,1.010742 1.3916,2.460937 0.4834,1.450196 0.4834,3.295899 0,1.757812 -0.51269,3.208008 -0.49805,1.435546 -1.43555,2.475586 -0.9375,1.040039 -2.28516,1.611328 -1.34765,0.571289 -3.04687,0.571289 z m 0.14648,-14.077149 q -1.23047,0 -2.22656,0.424805 -0.99609,0.424805 -1.71387,1.245117 -0.70312,0.805664 -1.08398,1.992188 -0.38086,1.171875 -0.38086,2.666015 0,1.40625 0.38086,2.53418 0.38086,1.12793 1.06934,1.933594 0.70312,0.805664 1.69921,1.245117 0.9961,0.424805 2.22657,0.424805 1.25976,0 2.22656,-0.410157 0.9668,-0.424804 1.64062,-1.21582 0.67383,-0.805664 1.01075,-1.962891 0.35156,-1.157226 0.35156,-2.636718 0,-3.032227 -1.34766,-4.628907 -1.34765,-1.611328 -3.85254,-1.611328 z"
         style="font-style:normal;font-variant:normal;font-weight:normal;font-stretch:normal;font-size:30px;font-family:'Segoe UI';-inkscape-font-specification:'Segoe UI';text-align:start;text-anchor:start;fill:#5a5a5a;fill-opacity:1"
         id="path3963"
         inkscape:connector-curvature="0" />
      <path
         d="m 163.23433,41.120075 0,-2.548828 -0.0586,0 q -1.52344,2.900391 -4.73145,2.900391 -5.34668,0 -5.34668,-6.533203 l 0,-8.81836 1.875,0 0,8.466797 q 0,2.695313 0.95215,3.984375 0.9668,1.289063 2.94433,1.289063 0.9668,0 1.75782,-0.366211 0.80566,-0.38086 1.37695,-1.054688 0.58594,-0.688476 0.9082,-1.640625 0.32227,-0.952148 0.32227,-2.109375 l 0,-8.569336 1.875,0 0,15 -1.875,0 z"
         style="font-style:normal;font-variant:normal;font-weight:normal;font-stretch:normal;font-size:30px;font-family:'Segoe UI';-inkscape-font-specification:'Segoe UI';text-align:start;text-anchor:start;fill:#5a5a5a;fill-opacity:1"
         id="path3965"
         inkscape:connector-curvature="0" />
      <path
         d="m 171.81831,38.703083 0,2.416992 -1.875,0 0,-22.207031 1.875,0 0,10.078125 0.0586,0 q 0.83496,-1.567383 2.22656,-2.387695 1.40625,-0.834961 3.16406,-0.834961 1.43555,0 2.56348,0.527343 1.14258,0.512696 1.91894,1.479493 0.79102,0.966797 1.20118,2.329101 0.4248,1.362305 0.4248,3.032227 0,1.860351 -0.4834,3.398437 -0.46875,1.523438 -1.34765,2.622071 -0.87891,1.098632 -2.13868,1.713867 -1.24511,0.600586 -2.79785,0.600586 -3.17871,0 -4.73144,-2.768555 l -0.0586,0 z m 0,-3.823242 q 0,1.02539 0.33692,1.933594 0.35156,0.893554 0.96679,1.582031 0.61524,0.673828 1.4795,1.069336 0.8789,0.395508 1.93359,0.395508 1.12793,0 2.03613,-0.46875 0.90821,-0.483399 1.53809,-1.362305 0.64453,-0.878906 0.98144,-2.124024 0.35157,-1.245117 0.35157,-2.783203 0,-1.318359 -0.32227,-2.373047 -0.32226,-1.069335 -0.92285,-1.816406 -0.58594,-0.74707 -1.43555,-1.142578 -0.83496,-0.395508 -1.875,-0.395508 -1.17187,0 -2.10937,0.439453 -0.9375,0.424805 -1.59668,1.171875 -0.65918,0.747071 -1.01074,1.757813 -0.35157,0.996094 -0.35157,2.124023 l 0,1.992188 z"
         style="font-style:normal;font-variant:normal;font-weight:normal;font-stretch:normal;font-size:30px;font-family:'Segoe UI';-inkscape-font-specification:'Segoe UI';text-align:start;text-anchor:start;fill:#5a5a5a;fill-opacity:1"
         id="path3967"
         inkscape:connector-curvature="0" />
      <path
         d="m 187.16988,41.120075 0,-22.207031 1.875,0 0,22.207031 -1.875,0 z"
         style="font-style:normal;font-variant:normal;font-weight:normal;font-stretch:normal;font-size:30px;font-family:'Segoe UI';-inkscape-font-specification:'Segoe UI';text-align:start;text-anchor:start;fill:#5a5a5a;fill-opacity:1"
         id="path3969"
         inkscape:connector-curvature="0" />
      <path
         d="m 194.80171,33.956989 q 0.0146,1.376953 0.36621,2.475586 0.35157,1.098633 1.01075,1.860352 0.65917,0.761719 1.59667,1.171875 0.95215,0.395508 2.13868,0.395508 2.53418,0 4.79004,-1.772461 l 0,1.845703 q -2.15332,1.538086 -5.21485,1.538086 -1.50879,0 -2.73926,-0.527344 -1.23046,-0.527344 -2.09472,-1.523438 -0.86426,-1.010742 -1.33301,-2.475585 -0.46875,-1.464844 -0.46875,-3.339844 0,-1.684571 0.5127,-3.120117 0.51269,-1.435547 1.42089,-2.475586 0.90821,-1.054688 2.15332,-1.640625 1.24512,-0.600586 2.72461,-0.600586 1.4502,0 2.56348,0.512695 1.11328,0.498047 1.86035,1.435547 0.76172,0.9375 1.15723,2.285156 0.39551,1.347656 0.39551,3.017578 l 0,0.9375 -10.83985,0 z m 8.90625,-1.640625 q -0.0439,-2.34375 -1.11328,-3.632812 -1.06934,-1.289063 -2.97363,-1.289063 -0.95215,0 -1.77246,0.336914 -0.80567,0.336914 -1.4209,0.981446 -0.61524,0.629882 -1.02539,1.552734 -0.39551,0.908203 -0.55664,2.050781 l 8.8623,0 z"
         style="font-style:normal;font-variant:normal;font-weight:normal;font-stretch:normal;font-size:30px;font-family:'Segoe UI';-inkscape-font-specification:'Segoe UI';text-align:start;text-anchor:start;fill:#5a5a5a;fill-opacity:1"
         id="path3971"
         inkscape:connector-curvature="0" />
      <path
         d="m 209.0107,33.356403 0,-1.611328 8.01269,0 0,1.611328 -8.01269,0 z"
         style="font-style:normal;font-variant:normal;font-weight:normal;font-stretch:normal;font-size:30px;font-family:'Segoe UI';-inkscape-font-specification:'Segoe UI';text-align:start;text-anchor:start;fill:#5a5a5a;fill-opacity:1"
         id="path3973"
         inkscape:connector-curvature="0" />
      <path
         d="m 231.24702,40.446247 q -1.66992,1.010742 -4.04296,1.040039 -1.61133,0.01465 -2.90039,-0.55664 -1.28907,-0.57129 -2.19727,-1.582032 -0.9082,-1.02539 -1.3916,-2.402343 -0.4834,-1.391602 -0.4834,-3.017579 0,-1.68457 0.51269,-3.164062 0.5127,-1.494141 1.49415,-2.592774 0.98144,-1.113281 2.40234,-1.757812 1.4209,-0.644531 3.25195,-0.644531 1.86035,0 3.39844,0.717773 l 0,1.992188 q -1.64063,-1.083985 -3.54492,-1.083985 -1.33301,0 -2.37305,0.512696 -1.04004,0.498046 -1.75781,1.376953 -0.70313,0.864258 -1.08399,2.036133 -0.36621,1.157226 -0.36621,2.460937 0,1.201172 0.30762,2.299805 0.32227,1.098633 0.9668,1.948242 0.65918,0.834961 1.65527,1.333008 0.99609,0.498047 2.34375,0.498047 2.10938,0 3.80859,-1.259766 l 0,1.845703 z"
         style="font-style:normal;font-variant:normal;font-weight:normal;font-stretch:normal;font-size:30px;font-family:'Segoe UI';-inkscape-font-specification:'Segoe UI';text-align:start;text-anchor:start;fill:#5a5a5a;fill-opacity:1"
         id="path3975"
         inkscape:connector-curvature="0" />
      <path
         d="m 234.86519,41.120075 0,-22.207031 1.875,0 0,22.207031 -1.875,0 z"
         style="font-style:normal;font-variant:normal;font-weight:normal;font-stretch:normal;font-size:30px;font-family:'Segoe UI';-inkscape-font-specification:'Segoe UI';text-align:start;text-anchor:start;fill:#5a5a5a;fill-opacity:1"
         id="path3977"
         inkscape:connector-curvature="0" />
      <path
         d="m 242.52632,22.32613 q -0.54199,0 -0.9375,-0.380859 -0.39551,-0.38086 -0.39551,-0.966797 0,-0.571289 0.39551,-0.9375 0.39551,-0.38086 0.9375,-0.38086 0.27832,0 0.52735,0.102539 0.24902,0.08789 0.4248,0.263672 0.19043,0.175781 0.29297,0.424805 0.11719,0.234375 0.11719,0.527344 0,0.27832 -0.10254,0.527343 -0.10254,0.249024 -0.29297,0.439454 -0.19043,0.175781 -0.43945,0.27832 -0.23438,0.102539 -0.52735,0.102539 z m -0.92285,18.793945 0,-15 1.875,0 0,15 -1.875,0 z"
         style="font-style:normal;font-variant:normal;font-weight:normal;font-stretch:normal;font-size:30px;font-family:'Segoe UI';-inkscape-font-specification:'Segoe UI';text-align:start;text-anchor:start;fill:#5a5a5a;fill-opacity:1"
         id="path3979"
         inkscape:connector-curvature="0" />
      <path
         d="m 258.31734,40.446247 q -1.66992,1.010742 -4.04297,1.040039 -1.61133,0.01465 -2.90039,-0.55664 -1.28906,-0.57129 -2.19727,-1.582032 -0.9082,-1.02539 -1.3916,-2.402343 -0.4834,-1.391602 -0.4834,-3.017579 0,-1.68457 0.5127,-3.164062 0.51269,-1.494141 1.49414,-2.592774 0.98144,-1.113281 2.40234,-1.757812 1.4209,-0.644531 3.25195,-0.644531 1.86036,0 3.39844,0.717773 l 0,1.992188 q -1.64062,-1.083985 -3.54492,-1.083985 -1.33301,0 -2.37305,0.512696 -1.04004,0.498046 -1.75781,1.376953 -0.70312,0.864258 -1.08398,2.036133 -0.36621,1.157226 -0.36621,2.460937 0,1.201172 0.30761,2.299805 0.32227,1.098633 0.9668,1.948242 0.65918,0.834961 1.65527,1.333008 0.9961,0.498047 2.34375,0.498047 2.10938,0 3.8086,-1.259766 l 0,1.845703 z"
         style="font-style:normal;font-variant:normal;font-weight:normal;font-stretch:normal;font-size:30px;font-family:'Segoe UI';-inkscape-font-specification:'Segoe UI';text-align:start;text-anchor:start;fill:#5a5a5a;fill-opacity:1"
         id="path3981"
         inkscape:connector-curvature="0" />
      <path
         d="m 270.76851,41.120075 -6.89942,-7.30957 -0.0586,0 0,7.30957 -1.875,0 0,-22.207031 1.875,0 0,14.194336 0.0586,0 6.54786,-6.987305 2.44629,0 -7.03125,7.250977 7.58789,7.749023 -2.65137,0 z"
         style="font-style:normal;font-variant:normal;font-weight:normal;font-stretch:normal;font-size:30px;font-family:'Segoe UI';-inkscape-font-specification:'Segoe UI';text-align:start;text-anchor:start;fill:#5a5a5a;fill-opacity:1"
         id="path3983"
         inkscape:connector-curvature="0" />
      <path
         d="m 290.70503,40.944294 q -0.96679,0.483398 -2.10937,0.483398 -3.63282,0 -3.63282,-4.189453 l 0,-9.477539 -2.63671,0 0,-1.640625 2.63671,0 0,-3.779297 1.875,-0.615234 0,4.394531 3.86719,0 0,1.640625 -3.86719,0 0,9.184571 q 0,1.523437 0.49805,2.197265 0.49805,0.673828 1.68457,0.673828 0.87891,0 1.68457,-0.527343 l 0,1.655273 z"
         style="font-style:normal;font-variant:normal;font-weight:normal;font-stretch:normal;font-size:30px;font-family:'Segoe UI';-inkscape-font-specification:'Segoe UI';text-align:start;text-anchor:start;fill:#5a5a5a;fill-opacity:1"
         id="path3985"
         inkscape:connector-curvature="0" />
      <path
         d="m 299.71382,41.471638 q -1.66992,0 -3.00293,-0.556641 -1.31836,-0.556641 -2.25586,-1.567383 -0.9375,-1.02539 -1.43554,-2.446289 -0.49805,-1.420898 -0.49805,-3.149414 0,-1.875 0.52734,-3.354492 0.52735,-1.479492 1.49414,-2.504883 0.98145,-1.040039 2.3584,-1.582031 1.37695,-0.541992 3.07617,-0.541992 1.62598,0 2.92969,0.541992 1.30371,0.527344 2.21191,1.538086 0.90821,1.010742 1.39161,2.460937 0.48339,1.450196 0.48339,3.295899 0,1.757812 -0.51269,3.208008 -0.49805,1.435546 -1.43555,2.475586 -0.9375,1.040039 -2.28515,1.611328 -1.34766,0.571289 -3.04688,0.571289 z m 0.14649,-14.077149 q -1.23047,0 -2.22657,0.424805 -0.99609,0.424805 -1.71386,1.245117 -0.70313,0.805664 -1.08399,1.992188 -0.38086,1.171875 -0.38086,2.666015 0,1.40625 0.38086,2.53418 0.38086,1.12793 1.06934,1.933594 0.70312,0.805664 1.69922,1.245117 0.99609,0.424805 2.22656,0.424805 1.25976,0 2.22656,-0.410157 0.9668,-0.424804 1.64063,-1.21582 0.67382,-0.805664 1.01074,-1.962891 0.35156,-1.157226 0.35156,-2.636718 0,-3.032227 -1.34766,-4.628907 -1.34765,-1.611328 -3.85253,-1.611328 z"
         style="font-style:normal;font-variant:normal;font-weight:normal;font-stretch:normal;font-size:30px;font-family:'Segoe UI';-inkscape-font-specification:'Segoe UI';text-align:start;text-anchor:start;fill:#5a5a5a;fill-opacity:1"
         id="path3987"
         inkscape:connector-curvature="0" />
      <path
         d="m 319.92867,22.32613 q -0.542,0 -0.9375,-0.380859 -0.39551,-0.38086 -0.39551,-0.966797 0,-0.571289 0.39551,-0.9375 0.3955,-0.38086 0.9375,-0.38086 0.27832,0 0.52734,0.102539 0.24902,0.08789 0.4248,0.263672 0.19043,0.175781 0.29297,0.424805 0.11719,0.234375 0.11719,0.527344 0,0.27832 -0.10254,0.527343 -0.10254,0.249024 -0.29297,0.439454 -0.19043,0.175781 -0.43945,0.27832 -0.23438,0.102539 -0.52734,0.102539 z m -0.92286,18.793945 0,-15 1.875,0 0,15 -1.875,0 z"
         style="font-style:normal;font-variant:normal;font-weight:normal;font-stretch:normal;font-size:30px;font-family:'Segoe UI';-inkscape-font-specification:'Segoe UI';text-align:start;text-anchor:start;fill:#5a5a5a;fill-opacity:1"
         id="path3989"
         inkscape:connector-curvature="0" />
      <path
         d="m 335.86617,41.120075 0,-8.642578 q 0,-5.083008 -3.69141,-5.083008 -0.98145,0 -1.81641,0.395508 -0.83496,0.380859 -1.45019,1.069336 -0.60059,0.688477 -0.95215,1.640625 -0.33692,0.9375 -0.33692,2.036133 l 0,8.583984 -1.875,0 0,-15 1.875,0 0,2.607422 0.0586,0 q 1.66992,-2.958984 5.02441,-2.958984 2.46094,0 3.75,1.596679 1.28907,1.59668 1.28907,4.614258 l 0,9.140625 -1.875,0 z"
         style="font-style:normal;font-variant:normal;font-weight:normal;font-stretch:normal;font-size:30px;font-family:'Segoe UI';-inkscape-font-specification:'Segoe UI';text-align:start;text-anchor:start;fill:#5a5a5a;fill-opacity:1"
         id="path3991"
         inkscape:connector-curvature="0" />
      <path
         d="m 343.19038,22.32613 q -0.54199,0 -0.9375,-0.380859 -0.3955,-0.38086 -0.3955,-0.966797 0,-0.571289 0.3955,-0.9375 0.39551,-0.38086 0.9375,-0.38086 0.27832,0 0.52735,0.102539 0.24902,0.08789 0.4248,0.263672 0.19043,0.175781 0.29297,0.424805 0.11719,0.234375 0.11719,0.527344 0,0.27832 -0.10254,0.527343 -0.10254,0.249024 -0.29297,0.439454 -0.19043,0.175781 -0.43945,0.27832 -0.23438,0.102539 -0.52735,0.102539 z m -0.92285,18.793945 0,-15 1.875,0 0,15 -1.875,0 z"
         style="font-style:normal;font-variant:normal;font-weight:normal;font-stretch:normal;font-size:30px;font-family:'Segoe UI';-inkscape-font-specification:'Segoe UI';text-align:start;text-anchor:start;fill:#5a5a5a;fill-opacity:1"
         id="path3993"
         inkscape:connector-curvature="0" />
      <path
         d="m 355.45113,40.944294 q -0.9668,0.483398 -2.10938,0.483398 -3.63281,0 -3.63281,-4.189453 l 0,-9.477539 -2.63672,0 0,-1.640625 2.63672,0 0,-3.779297 1.875,-0.615234 0,4.394531 3.86719,0 0,1.640625 -3.86719,0 0,9.184571 q 0,1.523437 0.49805,2.197265 0.49804,0.673828 1.68457,0.673828 0.8789,0 1.68457,-0.527343 l 0,1.655273 z"
         style="font-style:normal;font-variant:normal;font-weight:normal;font-stretch:normal;font-size:30px;font-family:'Segoe UI';-inkscape-font-specification:'Segoe UI';text-align:start;text-anchor:start;fill:#5a5a5a;fill-opacity:1"
         id="path3995"
         inkscape:connector-curvature="0" />
      <path
         d="m 359.47945,22.32613 q -0.542,0 -0.9375,-0.380859 -0.39551,-0.38086 -0.39551,-0.966797 0,-0.571289 0.39551,-0.9375 0.3955,-0.38086 0.9375,-0.38086 0.27832,0 0.52734,0.102539 0.24902,0.08789 0.4248,0.263672 0.19043,0.175781 0.29297,0.424805 0.11719,0.234375 0.11719,0.527344 0,0.27832 -0.10254,0.527343 -0.10254,0.249024 -0.29297,0.439454 -0.19043,0.175781 -0.43945,0.27832 -0.23437,0.102539 -0.52734,0.102539 z m -0.92286,18.793945 0,-15 1.875,0 0,15 -1.875,0 z"
         style="font-style:normal;font-variant:normal;font-weight:normal;font-stretch:normal;font-size:30px;font-family:'Segoe UI';-inkscape-font-specification:'Segoe UI';text-align:start;text-anchor:start;fill:#5a5a5a;fill-opacity:1"
         id="path3997"
         inkscape:connector-curvature="0" />
      <path
         d="m 373.93745,41.120075 0,-2.666015 -0.0586,0 q -0.73242,1.435546 -2.00684,2.226562 -1.25976,0.791016 -2.85644,0.791016 -1.08399,0 -1.96289,-0.307617 -0.86426,-0.307618 -1.47949,-0.864258 -0.60059,-0.571289 -0.9375,-1.362305 -0.32227,-0.791016 -0.32227,-1.743164 0,-2.036133 1.25977,-3.237305 1.25976,-1.21582 3.80859,-1.582031 l 4.55566,-0.65918 q 0,-4.321289 -3.35449,-4.321289 -2.62207,0 -4.86328,1.918946 l 0,-2.050782 q 0.46875,-0.336914 1.05469,-0.600586 0.60058,-0.27832 1.25976,-0.46875 0.65918,-0.205078 1.34766,-0.307617 0.70313,-0.117187 1.3623,-0.117187 2.50489,0 3.7793,1.40625 1.28906,1.40625 1.28906,4.189453 l 0,9.755859 -1.875,0 z m -3.86718,-7.280273 q -1.01075,0.146484 -1.72852,0.366211 -0.71777,0.219726 -1.18652,0.600586 -0.46875,0.366211 -0.68848,0.922851 -0.21973,0.541992 -0.21973,1.347656 0,0.600586 0.20508,1.113282 0.21973,0.512695 0.61524,0.893554 0.41015,0.366211 0.98144,0.571289 0.58594,0.205079 1.31836,0.205079 0.9961,0 1.83106,-0.38086 0.83496,-0.380859 1.43554,-1.054687 0.61524,-0.673828 0.95215,-1.611328 0.35156,-0.9375 0.35156,-2.036133 l 0,-1.479492 -3.86718,0.541992 z"
         style="font-style:normal;font-variant:normal;font-weight:normal;font-stretch:normal;font-size:30px;font-family:'Segoe UI';-inkscape-font-specification:'Segoe UI';text-align:start;text-anchor:start;fill:#5a5a5a;fill-opacity:1"
         id="path3999"
         inkscape:connector-curvature="0" />
      <path
         d="m 380.35347,41.120075 0,-22.207031 1.875,0 0,22.207031 -1.875,0 z"
         style="font-style:normal;font-variant:normal;font-weight:normal;font-stretch:normal;font-size:30px;font-family:'Segoe UI';-inkscape-font-specification:'Segoe UI';text-align:start;text-anchor:start;fill:#5a5a5a;fill-opacity:1"
         id="path4001"
         inkscape:connector-curvature="0" />
      <path
         d="m 388.0146,22.32613 q -0.54199,0 -0.9375,-0.380859 -0.39551,-0.38086 -0.39551,-0.966797 0,-0.571289 0.39551,-0.9375 0.39551,-0.38086 0.9375,-0.38086 0.27832,0 0.52735,0.102539 0.24902,0.08789 0.4248,0.263672 0.19043,0.175781 0.29297,0.424805 0.11719,0.234375 0.11719,0.527344 0,0.27832 -0.10254,0.527343 -0.10254,0.249024 -0.29297,0.439454 -0.19043,0.175781 -0.43945,0.27832 -0.23438,0.102539 -0.52735,0.102539 z m -0.92285,18.793945 0,-15 1.875,0 0,15 -1.875,0 z"
         style="font-style:normal;font-variant:normal;font-weight:normal;font-stretch:normal;font-size:30px;font-family:'Segoe UI';-inkscape-font-specification:'Segoe UI';text-align:start;text-anchor:start;fill:#5a5a5a;fill-opacity:1"
         id="path4003"
         inkscape:connector-curvature="0" />
      <path
         d="m 394.92867,39.47945 9.24316,0 0,1.640625 -12.09961,0 0,-0.629883 9.41895,-12.729492 -8.64258,0 0,-1.640625 11.54297,0 0,0.527344 -9.46289,12.832031 z"
         style="font-style:normal;font-variant:normal;font-weight:normal;font-stretch:normal;font-size:30px;font-family:'Segoe UI';-inkscape-font-specification:'Segoe UI';text-align:start;text-anchor:start;fill:#5a5a5a;fill-opacity:1"
         id="path4005"
         inkscape:connector-curvature="0" />
      <path
         d="m 408.49312,33.956989 q 0.0147,1.376953 0.36621,2.475586 0.35156,1.098633 1.01074,1.860352 0.65918,0.761719 1.59668,1.171875 0.95215,0.395508 2.13867,0.395508 2.53418,0 4.79004,-1.772461 l 0,1.845703 q -2.15332,1.538086 -5.21484,1.538086 -1.50879,0 -2.73926,-0.527344 -1.23047,-0.527344 -2.09473,-1.523438 -0.86425,-1.010742 -1.333,-2.475585 -0.46875,-1.464844 -0.46875,-3.339844 0,-1.684571 0.51269,-3.120117 0.5127,-1.435547 1.4209,-2.475586 0.9082,-1.054688 2.15332,-1.640625 1.24512,-0.600586 2.72461,-0.600586 1.45019,0 2.56348,0.512695 1.11328,0.498047 1.86035,1.435547 0.76172,0.9375 1.15722,2.285156 0.39551,1.347656 0.39551,3.017578 l 0,0.9375 -10.83984,0 z m 8.90625,-1.640625 q -0.0439,-2.34375 -1.11328,-3.632812 -1.06934,-1.289063 -2.97364,-1.289063 -0.95214,0 -1.77246,0.336914 -0.80566,0.336914 -1.4209,0.981446 -0.61523,0.629882 -1.02539,1.552734 -0.3955,0.908203 -0.55664,2.050781 l 8.86231,0 z"
         style="font-style:normal;font-variant:normal;font-weight:normal;font-stretch:normal;font-size:30px;font-family:'Segoe UI';-inkscape-font-specification:'Segoe UI';text-align:start;text-anchor:start;fill:#5a5a5a;fill-opacity:1"
         id="path4007"
         inkscape:connector-curvature="0" />
      <path
         d="m 125.38277,78.620075 0,-2.548828 -0.0586,0 q -1.52343,2.900391 -4.73144,2.900391 -5.34668,0 -5.34668,-6.533203 l 0,-8.81836 1.875,0 0,8.466797 q 0,2.695313 0.95215,3.984375 0.96679,1.289063 2.94433,1.289063 0.9668,0 1.75781,-0.366211 0.80567,-0.38086 1.37696,-1.054688 0.58594,-0.688476 0.9082,-1.640625 0.32227,-0.952148 0.32227,-2.109375 l 0,-8.569336 1.875,0 0,15 -1.875,0 z"
         style="font-style:normal;font-variant:normal;font-weight:normal;font-stretch:normal;font-size:30px;font-family:'Segoe UI';-inkscape-font-specification:'Segoe UI';text-align:start;text-anchor:start;fill:#5a5a5a;fill-opacity:1"
         id="path4009"
         inkscape:connector-curvature="0" />
      <path
         d="m 131.24214,75.924763 q 0.42481,0.336914 0.92285,0.600586 0.49805,0.263672 1.02539,0.454101 0.52735,0.19043 1.05469,0.292969 0.54199,0.08789 1.02539,0.08789 3.33985,0 3.33985,-2.504883 0,-0.571289 -0.23438,-0.981446 -0.23437,-0.424804 -0.67383,-0.761718 -0.43945,-0.351563 -1.05468,-0.644532 -0.61524,-0.292968 -1.39161,-0.615234 -1.04004,-0.424805 -1.78711,-0.864258 -0.74707,-0.439453 -1.23046,-0.952148 -0.4834,-0.527344 -0.71778,-1.142578 -0.23437,-0.629883 -0.23437,-1.420899 0,-0.996093 0.4248,-1.772461 0.43945,-0.776367 1.17188,-1.318359 0.73242,-0.541992 1.68457,-0.820313 0.96679,-0.292968 2.02148,-0.292968 1.94824,0 3.39844,0.732422 l 0,1.977539 q -1.68457,-1.083985 -3.63281,-1.083985 -0.70313,0 -1.28907,0.175782 -0.57129,0.175781 -0.98144,0.498046 -0.41016,0.322266 -0.64453,0.776368 -0.21973,0.439453 -0.21973,0.981445 0,0.556641 0.17578,0.981445 0.17578,0.410156 0.54199,0.747071 0.38086,0.336914 0.9668,0.644531 0.60059,0.307617 1.4502,0.659179 1.08398,0.439454 1.875,0.878907 0.79101,0.424804 1.30371,0.9375 0.51269,0.498047 0.76172,1.127929 0.24902,0.615235 0.24902,1.435547 0,1.010742 -0.42481,1.801758 -0.41015,0.791016 -1.15722,1.333008 -0.73242,0.541992 -1.72852,0.820312 -0.99609,0.278321 -2.16797,0.278321 -2.2705,0 -3.82324,-0.952149 l 0,-2.094726 z"
         style="font-style:normal;font-variant:normal;font-weight:normal;font-stretch:normal;font-size:30px;font-family:'Segoe UI';-inkscape-font-specification:'Segoe UI';text-align:start;text-anchor:start;fill:#5a5a5a;fill-opacity:1"
         id="path4011"
         inkscape:connector-curvature="0" />
      <path
         d="m 145.2021,59.82613 q -0.54199,0 -0.9375,-0.380859 -0.39551,-0.38086 -0.39551,-0.966797 0,-0.571289 0.39551,-0.9375 0.39551,-0.38086 0.9375,-0.38086 0.27832,0 0.52735,0.102539 0.24902,0.08789 0.4248,0.263672 0.19043,0.175781 0.29297,0.424805 0.11719,0.234375 0.11719,0.527344 0,0.27832 -0.10254,0.527343 -0.10254,0.249024 -0.29297,0.439454 -0.19043,0.175781 -0.43945,0.27832 -0.23438,0.102539 -0.52735,0.102539 z m -0.92285,18.793945 0,-15 1.875,0 0,15 -1.875,0 z"
         style="font-style:normal;font-variant:normal;font-weight:normal;font-stretch:normal;font-size:30px;font-family:'Segoe UI';-inkscape-font-specification:'Segoe UI';text-align:start;text-anchor:start;fill:#5a5a5a;fill-opacity:1"
         id="path4013"
         inkscape:connector-curvature="0" />
      <path
         d="m 161.1396,78.620075 0,-8.642578 q 0,-5.083008 -3.6914,-5.083008 -0.98145,0 -1.81641,0.395508 -0.83496,0.380859 -1.4502,1.069336 -0.60058,0.688477 -0.95214,1.640625 -0.33692,0.9375 -0.33692,2.036133 l 0,8.583984 -1.875,0 0,-15 1.875,0 0,2.607422 0.0586,0 q 1.66992,-2.958984 5.02441,-2.958984 2.46094,0 3.75,1.596679 1.28906,1.59668 1.28906,4.614258 l 0,9.140625 -1.875,0 z"
         style="font-style:normal;font-variant:normal;font-weight:normal;font-stretch:normal;font-size:30px;font-family:'Segoe UI';-inkscape-font-specification:'Segoe UI';text-align:start;text-anchor:start;fill:#5a5a5a;fill-opacity:1"
         id="path4015"
         inkscape:connector-curvature="0" />
      <path
         d="m 179.93355,77.462849 q 0,4.174804 -1.9043,6.18164 -1.88965,2.021485 -5.84473,2.021485 -2.46093,0 -4.6582,-1.098633 l 0,-1.904297 q 2.44629,1.362305 4.6582,1.362305 5.87403,0 5.87403,-6.210938 l 0,-1.801758 -0.0586,0 q -1.72851,2.958985 -5.27343,2.958985 -1.3916,0 -2.54883,-0.512696 -1.14258,-0.512695 -1.96289,-1.479492 -0.82031,-0.966797 -1.27442,-2.34375 -0.4541,-1.391601 -0.4541,-3.134765 0,-1.845704 0.4834,-3.354493 0.4834,-1.523437 1.37695,-2.607421 0.89356,-1.083985 2.15332,-1.669922 1.27442,-0.600586 2.85645,-0.600586 3.17871,0 4.64355,2.578125 l 0.0586,0 0,-2.226563 1.875,0 0,13.842774 z m -1.875,-7.954102 q 0,-0.9375 -0.33692,-1.772461 -0.33691,-0.834961 -0.9375,-1.464844 -0.60058,-0.629882 -1.43554,-0.996093 -0.82032,-0.38086 -1.81641,-0.38086 -1.17187,0 -2.12402,0.454102 -0.9375,0.454101 -1.61133,1.289062 -0.65918,0.834961 -1.02539,2.036133 -0.35156,1.186524 -0.35156,2.680664 0,1.376953 0.33691,2.490235 0.33691,1.113281 0.95215,1.889648 0.61523,0.776367 1.47949,1.201172 0.87891,0.424805 1.94824,0.424805 1.11328,0 2.02149,-0.395508 0.9082,-0.410156 1.55273,-1.113281 0.64453,-0.717774 0.9961,-1.669922 0.35156,-0.966797 0.35156,-2.080078 l 0,-2.592774 z"
         style="font-style:normal;font-variant:normal;font-weight:normal;font-stretch:normal;font-size:30px;font-family:'Segoe UI';-inkscape-font-specification:'Segoe UI';text-align:start;text-anchor:start;fill:#5a5a5a;fill-opacity:1"
         id="path4017"
         inkscape:connector-curvature="0" />
      <path
         d="m 199.41597,78.444294 q -0.9668,0.483398 -2.10938,0.483398 -3.63281,0 -3.63281,-4.189453 l 0,-9.477539 -2.63672,0 0,-1.640625 2.63672,0 0,-3.779297 1.875,-0.615234 0,4.394531 3.86719,0 0,1.640625 -3.86719,0 0,9.184571 q 0,1.523437 0.49805,2.197265 0.49805,0.673828 1.68457,0.673828 0.87891,0 1.68457,-0.527343 l 0,1.655273 z"
         style="font-style:normal;font-variant:normal;font-weight:normal;font-stretch:normal;font-size:30px;font-family:'Segoe UI';-inkscape-font-specification:'Segoe UI';text-align:start;text-anchor:start;fill:#5a5a5a;fill-opacity:1"
         id="path4019"
         inkscape:connector-curvature="0" />
      <path
         d="m 212.64351,78.620075 0,-8.818359 q 0,-2.519531 -0.9082,-3.706055 -0.90821,-1.201172 -2.82715,-1.201172 -0.90821,0 -1.72852,0.366211 -0.82031,0.366211 -1.43555,1.054688 -0.61523,0.688476 -0.98144,1.68457 -0.36621,0.981445 -0.36621,2.226563 l 0,8.393554 -1.875,0 0,-22.207031 1.875,0 0,9.799805 0.0586,0 q 1.75781,-2.944336 5.03906,-2.944336 2.50489,0 3.76465,1.538086 1.25977,1.538086 1.25977,4.541015 l 0,9.272461 -1.875,0 z"
         style="font-style:normal;font-variant:normal;font-weight:normal;font-stretch:normal;font-size:30px;font-family:'Segoe UI';-inkscape-font-specification:'Segoe UI';text-align:start;text-anchor:start;fill:#5a5a5a;fill-opacity:1"
         id="path4021"
         inkscape:connector-curvature="0" />
      <path
         d="m 219.93843,71.456989 q 0.0146,1.376953 0.36621,2.475586 0.35156,1.098633 1.01074,1.860352 0.65918,0.761719 1.59668,1.171875 0.95215,0.395508 2.13868,0.395508 2.53418,0 4.79003,-1.772461 l 0,1.845703 q -2.15332,1.538086 -5.21484,1.538086 -1.50879,0 -2.73926,-0.527344 -1.23047,-0.527344 -2.09472,-1.523438 -0.86426,-1.010742 -1.33301,-2.475585 -0.46875,-1.464844 -0.46875,-3.339844 0,-1.684571 0.51269,-3.120117 0.5127,-1.435547 1.4209,-2.475586 0.90821,-1.054688 2.15332,-1.640625 1.24512,-0.600586 2.72461,-0.600586 1.4502,0 2.56348,0.512695 1.11328,0.498047 1.86035,1.435547 0.76172,0.9375 1.15723,2.285156 0.3955,1.347656 0.3955,3.017578 l 0,0.9375 -10.83984,0 z m 8.90625,-1.640625 q -0.0439,-2.34375 -1.11328,-3.632812 -1.06934,-1.289063 -2.97363,-1.289063 -0.95215,0 -1.77246,0.336914 -0.80567,0.336914 -1.4209,0.981446 -0.61524,0.629882 -1.02539,1.552734 -0.39551,0.908203 -0.55664,2.050781 l 8.8623,0 z"
         style="font-style:normal;font-variant:normal;font-weight:normal;font-stretch:normal;font-size:30px;font-family:'Segoe UI';-inkscape-font-specification:'Segoe UI';text-align:start;text-anchor:start;fill:#5a5a5a;fill-opacity:1"
         id="path4023"
         inkscape:connector-curvature="0" />
      <path
         d="m 242.96577,78.620075 0,-21.005859 10.23926,0 0,1.787109 -8.29101,0 0,7.705078 7.67578,0 0,1.757813 -7.67578,0 0,7.983398 8.75976,0 0,1.772461 -10.70801,0 z"
         style="font-style:normal;font-variant:normal;font-weight:normal;font-stretch:normal;font-size:30px;font-family:'Segoe UI';-inkscape-font-specification:'Segoe UI';text-align:start;text-anchor:start;fill:#5a5a5a;fill-opacity:1"
         id="path4025"
         inkscape:connector-curvature="0" />
      <path
         d="m 260.0312,70.446247 0,8.173828 -1.94824,0 0,-21.005859 5.41992,0 q 1.65528,0 2.92969,0.410156 1.27442,0.410156 2.15332,1.186524 0.87891,0.776367 1.33301,1.904296 0.4541,1.12793 0.4541,2.578125 0,1.464844 -0.51269,2.709961 -0.5127,1.230469 -1.4795,2.138672 -0.95214,0.893555 -2.3291,1.40625 -1.37695,0.498047 -3.12012,0.498047 l -2.90039,0 z m 0,-11.044922 0,9.257813 2.78321,0 q 2.70996,0 4.11621,-1.259766 1.40625,-1.259766 1.40625,-3.55957 0,-4.438477 -5.18555,-4.438477 l -3.12012,0 z"
         style="font-style:normal;font-variant:normal;font-weight:normal;font-stretch:normal;font-size:30px;font-family:'Segoe UI';-inkscape-font-specification:'Segoe UI';text-align:start;text-anchor:start;fill:#5a5a5a;fill-opacity:1"
         id="path4027"
         inkscape:connector-curvature="0" />
      <path
         d="m 282.06245,78.620075 0,-2.666015 -0.0586,0 q -0.73242,1.435546 -2.00684,2.226562 -1.25976,0.791016 -2.85644,0.791016 -1.08399,0 -1.96289,-0.307617 -0.86426,-0.307618 -1.47949,-0.864258 -0.60059,-0.571289 -0.9375,-1.362305 -0.32227,-0.791016 -0.32227,-1.743164 0,-2.036133 1.25977,-3.237305 1.25976,-1.21582 3.80859,-1.582031 l 4.55566,-0.65918 q 0,-4.321289 -3.35449,-4.321289 -2.62207,0 -4.86328,1.918946 l 0,-2.050782 q 0.46875,-0.336914 1.05469,-0.600586 0.60058,-0.27832 1.25976,-0.46875 0.65918,-0.205078 1.34766,-0.307617 0.70313,-0.117187 1.3623,-0.117187 2.50489,0 3.7793,1.40625 1.28906,1.40625 1.28906,4.189453 l 0,9.755859 -1.875,0 z m -3.86718,-7.280273 q -1.01075,0.146484 -1.72852,0.366211 -0.71777,0.219726 -1.18652,0.600586 -0.46875,0.366211 -0.68848,0.922851 -0.21973,0.541992 -0.21973,1.347656 0,0.600586 0.20508,1.113282 0.21973,0.512695 0.61524,0.893554 0.41015,0.366211 0.98144,0.571289 0.58594,0.205079 1.31836,0.205079 0.9961,0 1.83106,-0.38086 0.83496,-0.380859 1.43554,-1.054687 0.61524,-0.673828 0.95215,-1.611328 0.35156,-0.9375 0.35156,-2.036133 l 0,-1.479492 -3.86718,0.541992 z"
         style="font-style:normal;font-variant:normal;font-weight:normal;font-stretch:normal;font-size:30px;font-family:'Segoe UI';-inkscape-font-specification:'Segoe UI';text-align:start;text-anchor:start;fill:#5a5a5a;fill-opacity:1"
         id="path4029"
         inkscape:connector-curvature="0" />
      <path
         d="m 298.45406,77.946247 q -1.66993,1.010742 -4.04297,1.040039 -1.61133,0.01465 -2.90039,-0.55664 -1.28907,-0.57129 -2.19727,-1.582032 -0.9082,-1.02539 -1.3916,-2.402343 -0.4834,-1.391602 -0.4834,-3.017579 0,-1.68457 0.5127,-3.164062 0.51269,-1.494141 1.49414,-2.592774 0.98144,-1.113281 2.40234,-1.757812 1.4209,-0.644531 3.25195,-0.644531 1.86036,0 3.39844,0.717773 l 0,1.992188 q -1.64062,-1.083985 -3.54492,-1.083985 -1.33301,0 -2.37305,0.512696 -1.04004,0.498046 -1.75781,1.376953 -0.70313,0.864258 -1.08398,2.036133 -0.36622,1.157226 -0.36622,2.460937 0,1.201172 0.30762,2.299805 0.32227,1.098633 0.9668,1.948242 0.65918,0.834961 1.65527,1.333008 0.9961,0.498047 2.34375,0.498047 2.10938,0 3.8086,-1.259766 l 0,1.845703 z"
         style="font-style:normal;font-variant:normal;font-weight:normal;font-stretch:normal;font-size:30px;font-family:'Segoe UI';-inkscape-font-specification:'Segoe UI';text-align:start;text-anchor:start;fill:#5a5a5a;fill-opacity:1"
         id="path4031"
         inkscape:connector-curvature="0" />
      <path
         d="m 310.90523,78.620075 -6.89942,-7.30957 -0.0586,0 0,7.30957 -1.875,0 0,-22.207031 1.875,0 0,14.194336 0.0586,0 6.54786,-6.987305 2.44628,0 -7.03125,7.250977 7.58789,7.749023 -2.65136,0 z"
         style="font-style:normal;font-variant:normal;font-weight:normal;font-stretch:normal;font-size:30px;font-family:'Segoe UI';-inkscape-font-specification:'Segoe UI';text-align:start;text-anchor:start;fill:#5a5a5a;fill-opacity:1"
         id="path4033"
         inkscape:connector-curvature="0" />
      <path
         d="m 324.83589,78.620075 0,-2.666015 -0.0586,0 q -0.73242,1.435546 -2.00684,2.226562 -1.25976,0.791016 -2.85644,0.791016 -1.08399,0 -1.96289,-0.307617 -0.86426,-0.307618 -1.4795,-0.864258 -0.60058,-0.571289 -0.9375,-1.362305 -0.32226,-0.791016 -0.32226,-1.743164 0,-2.036133 1.25976,-3.237305 1.25977,-1.21582 3.8086,-1.582031 l 4.55566,-0.65918 q 0,-4.321289 -3.35449,-4.321289 -2.62207,0 -4.86328,1.918946 l 0,-2.050782 q 0.46875,-0.336914 1.05469,-0.600586 0.60058,-0.27832 1.25976,-0.46875 0.65918,-0.205078 1.34766,-0.307617 0.70312,-0.117187 1.3623,-0.117187 2.50489,0 3.7793,1.40625 1.28906,1.40625 1.28906,4.189453 l 0,9.755859 -1.875,0 z m -3.86719,-7.280273 q -1.01074,0.146484 -1.72851,0.366211 -0.71777,0.219726 -1.18652,0.600586 -0.46875,0.366211 -0.68848,0.922851 -0.21973,0.541992 -0.21973,1.347656 0,0.600586 0.20508,1.113282 0.21973,0.512695 0.61523,0.893554 0.41016,0.366211 0.98145,0.571289 0.58594,0.205079 1.31836,0.205079 0.99609,0 1.83105,-0.38086 0.83496,-0.380859 1.43555,-1.054687 0.61524,-0.673828 0.95215,-1.611328 0.35156,-0.9375 0.35156,-2.036133 l 0,-1.479492 -3.86719,0.541992 z"
         style="font-style:normal;font-variant:normal;font-weight:normal;font-stretch:normal;font-size:30px;font-family:'Segoe UI';-inkscape-font-specification:'Segoe UI';text-align:start;text-anchor:start;fill:#5a5a5a;fill-opacity:1"
         id="path4035"
         inkscape:connector-curvature="0" />
      <path
         d="m 343.64449,77.462849 q 0,4.174804 -1.9043,6.18164 -1.88965,2.021485 -5.84473,2.021485 -2.46094,0 -4.6582,-1.098633 l 0,-1.904297 q 2.44629,1.362305 4.6582,1.362305 5.87403,0 5.87403,-6.210938 l 0,-1.801758 -0.0586,0 q -1.72851,2.958985 -5.27344,2.958985 -1.3916,0 -2.54882,-0.512696 -1.14258,-0.512695 -1.96289,-1.479492 -0.82032,-0.966797 -1.27442,-2.34375 -0.4541,-1.391601 -0.4541,-3.134765 0,-1.845704 0.4834,-3.354493 0.4834,-1.523437 1.37695,-2.607421 0.89356,-1.083985 2.15332,-1.669922 1.27442,-0.600586 2.85645,-0.600586 3.17871,0 4.64355,2.578125 l 0.0586,0 0,-2.226563 1.875,0 0,13.842774 z m -1.875,-7.954102 q 0,-0.9375 -0.33692,-1.772461 -0.33691,-0.834961 -0.9375,-1.464844 -0.60058,-0.629882 -1.43555,-0.996093 -0.82031,-0.38086 -1.8164,-0.38086 -1.17188,0 -2.12403,0.454102 -0.9375,0.454101 -1.61132,1.289062 -0.65918,0.834961 -1.02539,2.036133 -0.35157,1.186524 -0.35157,2.680664 0,1.376953 0.33692,2.490235 0.33691,1.113281 0.95215,1.889648 0.61523,0.776367 1.47949,1.201172 0.8789,0.424805 1.94824,0.424805 1.11328,0 2.02148,-0.395508 0.90821,-0.410156 1.55274,-1.113281 0.64453,-0.717774 0.99609,-1.669922 0.35157,-0.966797 0.35157,-2.080078 l 0,-2.592774 z"
         style="font-style:normal;font-variant:normal;font-weight:normal;font-stretch:normal;font-size:30px;font-family:'Segoe UI';-inkscape-font-specification:'Segoe UI';text-align:start;text-anchor:start;fill:#5a5a5a;fill-opacity:1"
         id="path4037"
         inkscape:connector-curvature="0" />
      <path
         d="m 349.37202,71.456989 q 0.0146,1.376953 0.36622,2.475586 0.35156,1.098633 1.01074,1.860352 0.65918,0.761719 1.59668,1.171875 0.95215,0.395508 2.13867,0.395508 2.53418,0 4.79004,-1.772461 l 0,1.845703 q -2.15332,1.538086 -5.21485,1.538086 -1.50878,0 -2.73925,-0.527344 -1.23047,-0.527344 -2.09473,-1.523438 -0.86426,-1.010742 -1.33301,-2.475585 -0.46875,-1.464844 -0.46875,-3.339844 0,-1.684571 0.5127,-3.120117 0.51269,-1.435547 1.4209,-2.475586 0.9082,-1.054688 2.15332,-1.640625 1.24511,-0.600586 2.72461,-0.600586 1.45019,0 2.56347,0.512695 1.11328,0.498047 1.86035,1.435547 0.76172,0.9375 1.15723,2.285156 0.39551,1.347656 0.39551,3.017578 l 0,0.9375 -10.83985,0 z m 8.90625,-1.640625 q -0.0439,-2.34375 -1.11328,-3.632812 -1.06933,-1.289063 -2.97363,-1.289063 -0.95215,0 -1.77246,0.336914 -0.80566,0.336914 -1.4209,0.981446 -0.61523,0.629882 -1.02539,1.552734 -0.39551,0.908203 -0.55664,2.050781 l 8.8623,0 z"
         style="font-style:normal;font-variant:normal;font-weight:normal;font-stretch:normal;font-size:30px;font-family:'Segoe UI';-inkscape-font-specification:'Segoe UI';text-align:start;text-anchor:start;fill:#5a5a5a;fill-opacity:1"
         id="path4039"
         inkscape:connector-curvature="0" />
      <path
         d="m 382.06734,77.946247 q -1.66992,1.010742 -4.04297,1.040039 -1.61133,0.01465 -2.90039,-0.55664 -1.28906,-0.57129 -2.19727,-1.582032 -0.9082,-1.02539 -1.3916,-2.402343 -0.4834,-1.391602 -0.4834,-3.017579 0,-1.68457 0.5127,-3.164062 0.51269,-1.494141 1.49414,-2.592774 0.98144,-1.113281 2.40234,-1.757812 1.4209,-0.644531 3.25195,-0.644531 1.86036,0 3.39844,0.717773 l 0,1.992188 q -1.64062,-1.083985 -3.54492,-1.083985 -1.33301,0 -2.37305,0.512696 -1.04004,0.498046 -1.75781,1.376953 -0.70312,0.864258 -1.08398,2.036133 -0.36621,1.157226 -0.36621,2.460937 0,1.201172 0.30761,2.299805 0.32227,1.098633 0.9668,1.948242 0.65918,0.834961 1.65527,1.333008 0.9961,0.498047 2.34375,0.498047 2.10938,0 3.8086,-1.259766 l 0,1.845703 z"
         style="font-style:normal;font-variant:normal;font-weight:normal;font-stretch:normal;font-size:30px;font-family:'Segoe UI';-inkscape-font-specification:'Segoe UI';text-align:start;text-anchor:start;fill:#5a5a5a;fill-opacity:1"
         id="path4041"
         inkscape:connector-curvature="0" />
      <path
         d="m 391.8232,78.971638 q -1.66993,0 -3.00293,-0.556641 -1.31836,-0.556641 -2.25586,-1.567383 -0.9375,-1.02539 -1.43555,-2.446289 -0.49805,-1.420898 -0.49805,-3.149414 0,-1.875 0.52735,-3.354492 0.52734,-1.479492 1.49414,-2.504883 0.98144,-1.040039 2.3584,-1.582031 1.37695,-0.541992 3.07617,-0.541992 1.62597,0 2.92969,0.541992 1.30371,0.527344 2.21191,1.538086 0.9082,1.010742 1.3916,2.460937 0.4834,1.450196 0.4834,3.295899 0,1.757812 -0.5127,3.208008 -0.49804,1.435546 -1.43554,2.475586 -0.9375,1.040039 -2.28516,1.611328 -1.34765,0.571289 -3.04687,0.571289 z m 0.14648,-14.077149 q -1.23047,0 -2.22656,0.424805 -0.9961,0.424805 -1.71387,1.245117 -0.70312,0.805664 -1.08398,1.992188 -0.38086,1.171875 -0.38086,2.666015 0,1.40625 0.38086,2.53418 0.38086,1.12793 1.06933,1.933594 0.70313,0.805664 1.69922,1.245117 0.9961,0.424805 2.22656,0.424805 1.25977,0 2.22657,-0.410157 0.96679,-0.424804 1.64062,-1.21582 0.67383,-0.805664 1.01074,-1.962891 0.35157,-1.157226 0.35157,-2.636718 0,-3.032227 -1.34766,-4.628907 -1.34766,-1.611328 -3.85254,-1.611328 z"
         style="font-style:normal;font-variant:normal;font-weight:normal;font-stretch:normal;font-size:30px;font-family:'Segoe UI';-inkscape-font-specification:'Segoe UI';text-align:start;text-anchor:start;fill:#5a5a5a;fill-opacity:1"
         id="path4043"
         inkscape:connector-curvature="0" />
      <path
         d="m 413.03413,78.620075 0,-8.642578 q 0,-5.083008 -3.6914,-5.083008 -0.98145,0 -1.81641,0.395508 -0.83496,0.380859 -1.45019,1.069336 -0.60059,0.688477 -0.95215,1.640625 -0.33692,0.9375 -0.33692,2.036133 l 0,8.583984 -1.875,0 0,-15 1.875,0 0,2.607422 0.0586,0 q 1.66992,-2.958984 5.02441,-2.958984 2.46094,0 3.75,1.596679 1.28906,1.59668 1.28906,4.614258 l 0,9.140625 -1.875,0 z"
         style="font-style:normal;font-variant:normal;font-weight:normal;font-stretch:normal;font-size:30px;font-family:'Segoe UI';-inkscape-font-specification:'Segoe UI';text-align:start;text-anchor:start;fill:#5a5a5a;fill-opacity:1"
         id="path4045"
         inkscape:connector-curvature="0" />
      <path
         d="m 425.88081,78.444294 q -0.96679,0.483398 -2.10937,0.483398 -3.63281,0 -3.63281,-4.189453 l 0,-9.477539 -2.63672,0 0,-1.640625 2.63672,0 0,-3.779297 1.875,-0.615234 0,4.394531 3.86718,0 0,1.640625 -3.86718,0 0,9.184571 q 0,1.523437 0.49804,2.197265 0.49805,0.673828 1.68457,0.673828 0.87891,0 1.68457,-0.527343 l 0,1.655273 z"
         style="font-style:normal;font-variant:normal;font-weight:normal;font-stretch:normal;font-size:30px;font-family:'Segoe UI';-inkscape-font-specification:'Segoe UI';text-align:start;text-anchor:start;fill:#5a5a5a;fill-opacity:1"
         id="path4047"
         inkscape:connector-curvature="0" />
      <path
         d="m 429.64546,71.456989 q 0.0146,1.376953 0.36621,2.475586 0.35157,1.098633 1.01075,1.860352 0.65917,0.761719 1.59667,1.171875 0.95215,0.395508 2.13868,0.395508 2.53418,0 4.79004,-1.772461 l 0,1.845703 q -2.15332,1.538086 -5.21485,1.538086 -1.50879,0 -2.73926,-0.527344 -1.23046,-0.527344 -2.09472,-1.523438 -0.86426,-1.010742 -1.33301,-2.475585 -0.46875,-1.464844 -0.46875,-3.339844 0,-1.684571 0.5127,-3.120117 0.51269,-1.435547 1.42089,-2.475586 0.90821,-1.054688 2.15332,-1.640625 1.24512,-0.600586 2.72461,-0.600586 1.4502,0 2.56348,0.512695 1.11328,0.498047 1.86035,1.435547 0.76172,0.9375 1.15723,2.285156 0.39551,1.347656 0.39551,3.017578 l 0,0.9375 -10.83985,0 z m 8.90625,-1.640625 q -0.0439,-2.34375 -1.11328,-3.632812 -1.06934,-1.289063 -2.97363,-1.289063 -0.95215,0 -1.77246,0.336914 -0.80567,0.336914 -1.4209,0.981446 -0.61524,0.629882 -1.02539,1.552734 -0.39551,0.908203 -0.55664,2.050781 l 8.8623,0 z"
         style="font-style:normal;font-variant:normal;font-weight:normal;font-stretch:normal;font-size:30px;font-family:'Segoe UI';-inkscape-font-specification:'Segoe UI';text-align:start;text-anchor:start;fill:#5a5a5a;fill-opacity:1"
         id="path4049"
         inkscape:connector-curvature="0" />
      <path
         d="m 454.28413,78.620075 0,-8.642578 q 0,-5.083008 -3.6914,-5.083008 -0.98145,0 -1.81641,0.395508 -0.83496,0.380859 -1.45019,1.069336 -0.60059,0.688477 -0.95215,1.640625 -0.33692,0.9375 -0.33692,2.036133 l 0,8.583984 -1.875,0 0,-15 1.875,0 0,2.607422 0.0586,0 q 1.66992,-2.958984 5.02441,-2.958984 2.46094,0 3.75,1.596679 1.28906,1.59668 1.28906,4.614258 l 0,9.140625 -1.875,0 z"
         style="font-style:normal;font-variant:normal;font-weight:normal;font-stretch:normal;font-size:30px;font-family:'Segoe UI';-inkscape-font-specification:'Segoe UI';text-align:start;text-anchor:start;fill:#5a5a5a;fill-opacity:1"
         id="path4051"
         inkscape:connector-curvature="0" />
      <path
         d="m 467.13081,78.444294 q -0.96679,0.483398 -2.10937,0.483398 -3.63281,0 -3.63281,-4.189453 l 0,-9.477539 -2.63672,0 0,-1.640625 2.63672,0 0,-3.779297 1.875,-0.615234 0,4.394531 3.86718,0 0,1.640625 -3.86718,0 0,9.184571 q 0,1.523437 0.49804,2.197265 0.49805,0.673828 1.68457,0.673828 0.87891,0 1.68457,-0.527343 l 0,1.655273 z"
         style="font-style:normal;font-variant:normal;font-weight:normal;font-stretch:normal;font-size:30px;font-family:'Segoe UI';-inkscape-font-specification:'Segoe UI';text-align:start;text-anchor:start;fill:#5a5a5a;fill-opacity:1"
         id="path4053"
         inkscape:connector-curvature="0" />
      <path
         d="m 471.10054,78.913044 q -0.58594,0 -0.99609,-0.410156 -0.41016,-0.410157 -0.41016,-0.996094 0,-0.600586 0.39551,-1.010742 0.41015,-0.410156 1.01074,-0.410156 0.29297,0 0.54199,0.117187 0.26367,0.102539 0.4541,0.292969 0.19043,0.175781 0.30762,0.439453 0.11719,0.263672 0.11719,0.571289 0,0.292969 -0.11719,0.556641 -0.11719,0.249023 -0.30762,0.439453 -0.19043,0.190429 -0.4541,0.292968 -0.24902,0.117188 -0.54199,0.117188 z"
         style="font-style:normal;font-variant:normal;font-weight:normal;font-stretch:normal;font-size:30px;font-family:'Segoe UI';-inkscape-font-specification:'Segoe UI';text-align:start;text-anchor:start;fill:#5a5a5a;fill-opacity:1"
         id="path4055"
         inkscape:connector-curvature="0" />
    </g>
  </g>
</svg>
